<?xml version="1.0" standalone="no"?>
<svg viewBox="0 0 200 200" xmlns="http://www.w3.org/2000/svg">
  <path fill="#FF0066" d="M43.8,-78C55.3,-69.2,62.3,-54.6,69.7,-40.6C77.2,-26.6,85.2,-13.3,84.8,-0.2C84.3,12.8,75.5,25.7,68.1,39.6C60.6,53.6,54.5,68.6,43.3,77.7C32.2,86.7,16.1,89.7,0.2,89.4C-15.7,89,-31.4,85.3,-45.6,78C-59.8,70.8,-72.5,60,-79.3,46.4C-86.2,32.8,-87.1,16.4,-83.2,2.2C-79.3,-11.9,-70.6,-23.8,-63.6,-37.2C-56.7,-50.6,-51.6,-65.5,-41.3,-75.1C-31,-84.6,-15.5,-88.9,0.3,-89.4C16.1,-90,32.2,-86.9,43.8,-78Z" transform="translate(100 100)" />
</svg>
